@startuml
'https://plantuml.com/class-diagram

abstract class Widget
abstract class ProxyWidget
abstract class InheritedWidget

Widget <|-- ProxyWidget
ProxyWidget <|-- InheritedWidget

abstract class BuildContext {
    T? dependOnInheritedWidgetOfExactType()
    T? getInheritedWidgetOfExactType
}
abstract class Element {
    PersistentHashMap<Type, InheritedElement>? _inheritedElements;
}
abstract class ComponentElement
abstract class ProxyElement
class InheritedElement

BuildContext <|.. Element

Element <|-- ComponentElement
ComponentElement <|-- ProxyElement
ProxyElement <|-- InheritedElement

Element *-- Widget

@enduml